<svg xmlns="http://www.w3.org/2000/svg" viewBox="0 0 20 20" height="20" width="20"><title>bank-JP-11.svg</title><rect fill="none" x="0" y="0" width="20" height="20"></rect><rect x="1" y="1" rx="4" ry="4" width="18" height="18" stroke="#ffffff" style="stroke-linejoin:round;stroke-miterlimit:4;" fill="#ffffff" stroke-width="2"></rect><rect x="1" y="1" width="18" height="18" rx="4" ry="4" fill="#f6aa00"></rect><path fill="#ffffff" transform="translate(4 4)" d="M8.8259,2.4806l-1.9338,2.27H8a.5.5,0,0,1,0,1H6.25V6.75H8a.5.5,0,0,1,0,1H6.25V9a.75.75,0,0,1-1.5,0V7.75H3a.5.5,0,0,1,0-1H4.75v-.999H3a.5.5,0,0,1,0-1H4.1075l-1.9333-2.27A.75.75,0,0,1,3.3265,1.52L5.5,4.0781,7.6736,1.52a.75.75,0,1,1,1.1523.9609Z"></path></svg>