<svg xmlns="http://www.w3.org/2000/svg" viewBox="0 0 21 21" height="21" width="21"><title>castle-JP-15.svg</title><rect fill="none" x="0" y="0" width="21" height="21"></rect><rect x="1" y="1" rx="4" ry="4" width="19" height="19" stroke="#ffffff" style="stroke-linejoin:round;stroke-miterlimit:4;" fill="#ffffff" stroke-width="2"></rect><rect x="1" y="1" width="19" height="19" rx="4" ry="4" fill="#c773c7"></rect><path fill="#ffffff" transform="translate(3 3)" d="M12.5,12.75a1,1,0,0,1-1-.9995V7.25H10a1,1,0,0,1-1-1v-2H6v2a1,1,0,0,1-1,1H3.5v4.5a1,1,0,0,1-2,0V6.25a1,1,0,0,1,1-1H4v-2a1,1,0,0,1,1-1h5a1,1,0,0,1,1,1v2h1.5a1,1,0,0,1,1,1v5.5a1,1,0,0,1-.9995,1Z"></path></svg>