<svg xmlns="http://www.w3.org/2000/svg" viewBox="0 0 14 14" height="14" width="14"><title>cemetery-JP-11.svg</title><rect fill="none" x="0" y="0" width="14" height="14"></rect><rect x="0" y="0" rx="4" ry="4" width="13" height="13" stroke="#ffffff" style="stroke-linejoin:round;stroke-miterlimit:4;" fill="#ffffff" stroke-width="1"></rect><rect x="0" y="0" width="13" height="13" rx="4" ry="4" fill="#415cbd"></rect><path fill="#ffffff" transform="translate(1 1)" d="M8.2054,7.9054h-2v-5.6a.736.736,0,0,0-.8-.8.7128.7128,0,0,0-.7947.62.734.734,0,0,0-.0053.08v5.7h-1.8a.736.736,0,0,0-.8.8A.7136.7136,0,0,0,2.6275,9.5a.7011.7011,0,0,0,.0779.0052h5.5a.7361.7361,0,0,0,.8-.6659.7508.7508,0,0,0,0-.1341.7685.7685,0,0,0-.7357-.8h0C8.2483,7.9045,8.2268,7.9045,8.2054,7.9054Z"></path></svg>