<svg xmlns="http://www.w3.org/2000/svg" viewBox="0 0 18 18" height="18" width="18"><title>cemetery-JP-15.svg</title><rect fill="none" x="0" y="0" width="18" height="18"></rect><rect x="0" y="0" rx="4" ry="4" width="17" height="17" stroke="#ffffff" style="stroke-linejoin:round;stroke-miterlimit:4;" fill="#ffffff" stroke-width="1"></rect><rect x="0" y="0" width="17" height="17" rx="4" ry="4" fill="#415cbd"></rect><path fill="#ffffff" transform="translate(1 1)" d="M11.5,11h-3V2.5a.9448.9448,0,0,0-1-1,.9448.9448,0,0,0-1,1V11h-3a1,1,0,0,0,0,2h8a.9448.9448,0,0,0,1-1A1.0022,1.0022,0,0,0,11.5,11Z"></path></svg>