<svg xmlns="http://www.w3.org/2000/svg" viewBox="0 0 24 24" height="24" width="24"><title>circle-stroked-15.svg</title><rect fill="none" x="0" y="0" width="24" height="24"></rect><rect x="1" y="1" rx="4" ry="4" width="22" height="22" stroke="#ffffff" style="stroke-linejoin:round;stroke-miterlimit:4;" fill="#ffffff" stroke-width="2"></rect><rect x="1" y="1" width="22" height="22" rx="4" ry="4" fill="#415cbd"></rect><path fill="#ffffff" transform="translate(4 4)" d="M7.5,0C11.6422,0,15,3.3578,15,7.5S11.6422,15,7.5,15
	S0,11.6422,0,7.5S3.3578,0,7.5,0z M7.5,1.6666c-3.2217,0-5.8333,2.6117-5.8333,5.8334S4.2783,13.3334,7.5,13.3334
	s5.8333-2.6117,5.8333-5.8334S10.7217,1.6666,7.5,1.6666z"></path></svg>