<svg xmlns="http://www.w3.org/2000/svg" viewBox="0 0 24 24" height="24" width="24"><title>entrance-alt1-15.svg</title><rect fill="none" x="0" y="0" width="24" height="24"></rect><rect x="1" y="1" rx="4" ry="4" width="22" height="22" stroke="#ffffff" style="stroke-linejoin:round;stroke-miterlimit:4;" fill="#ffffff" stroke-width="2"></rect><rect x="1" y="1" width="22" height="22" rx="4" ry="4" fill="#f6aa00"></rect><path fill="#ffffff" transform="translate(4 4)" d="M6.554,9.639a.5.5,0,0,0,.707.707L9.928,7.669a.25.25,0,0,0,0-.354h0L7.261,4.639a.5.5,0,0,0-.707.707L8.2,7H1.5a.5.5,0,0,0,0,1H8.2ZM12,1H5.5a.5.5,0,0,0,0,1h6a.5.5,0,0,1,.5.5v10a.5.5,0,0,1-.5.5H5.25a.5.5,0,0,0,0,1H12a1,1,0,0,0,1-1V2A1,1,0,0,0,12,1Z"></path></svg>