<svg xmlns="http://www.w3.org/2000/svg" viewBox="0 0 20 20" height="20" width="20"><title>fence-11.svg</title><rect fill="none" x="0" y="0" width="20" height="20"></rect><rect x="1" y="1" rx="4" ry="4" width="18" height="18" stroke="#ffffff" style="stroke-linejoin:round;stroke-miterlimit:4;" fill="#ffffff" stroke-width="2"></rect><rect x="1" y="1" width="18" height="18" rx="4" ry="4" fill="#415cbd"></rect><path fill="#ffffff" transform="translate(4 4)" d="M9.5,7H9V5h.5a.5.5,0,0,0,0-1H9V3l-.278-.555a.254.254,0,0,0-.443,0L8,3V4H7V3l-.278-.555a.254.254,0,0,0-.443,0L6,3V4H5V3l-.278-.555a.254.254,0,0,0-.443,0L4,3V4H3V3l-.278-.555a.254.254,0,0,0-.443,0L2,3V4H1.5a.5.5,0,0,0,0,1H2V7H1.5a.5.5,0,0,0,0,1H2v.5a.5.5,0,0,0,1,0V8H4v.5a.5.5,0,0,0,1,0V8H6v.5a.5.5,0,0,0,1,0V8H8v.5a.5.5,0,0,0,1,0V8h.5a.5.5,0,0,0,0-1ZM3,7V5H4V7ZM5,7V5H6V7ZM7,7V5H8V7Z"></path></svg>