<svg xmlns="http://www.w3.org/2000/svg" viewBox="0 0 24 24" height="24" width="24"><title>fire-station-JP-15.svg</title><rect fill="none" x="0" y="0" width="24" height="24"></rect><rect x="1" y="1" rx="4" ry="4" width="22" height="22" stroke="#ffffff" style="stroke-linejoin:round;stroke-miterlimit:4;" fill="#ffffff" stroke-width="2"></rect><rect x="1" y="1" width="22" height="22" rx="4" ry="4" fill="#f6aa00"></rect><path fill="#ffffff" transform="translate(4 4)" d="M8.5,8.1489V11.75a1,1,0,0,1-2,0V8.1489A5.0084,5.0084,0,0,1,2.5,3.25a1,1,0,0,1,2,0,3,3,0,0,0,6,0,1,1,0,0,1,2,0A5.0082,5.0082,0,0,1,8.5,8.1489Z"></path></svg>