<svg xmlns="http://www.w3.org/2000/svg" viewBox="0 0 20 20" height="20" width="20"><title>fire-station-JP-11.svg</title><rect fill="none" x="0" y="0" width="20" height="20"></rect><rect x="1" y="1" rx="4" ry="4" width="18" height="18" stroke="#ffffff" style="stroke-linejoin:round;stroke-miterlimit:4;" fill="#ffffff" stroke-width="2"></rect><rect x="1" y="1" width="18" height="18" rx="4" ry="4" fill="#f6aa00"></rect><path fill="#ffffff" transform="translate(4 4)" d="M6.375,5.8871V8.625a.875.875,0,0,1-1.75,0V5.8871A3.75,3.75,0,0,1,1.75,2.25a.75.75,0,0,1,1.5,0,2.25,2.25,0,0,0,4.5,0,.75.75,0,0,1,1.5,0A3.75,3.75,0,0,1,6.375,5.8871Z"></path></svg>