<svg xmlns="http://www.w3.org/2000/svg" viewBox="0 0 20 20" height="20" width="20"><title>fitness-centre-11.svg</title><rect fill="none" x="0" y="0" width="20" height="20"></rect><rect x="1" y="1" rx="4" ry="4" width="18" height="18" stroke="#ffffff" style="stroke-linejoin:round;stroke-miterlimit:4;" fill="#ffffff" stroke-width="2"></rect><rect x="1" y="1" width="18" height="18" rx="4" ry="4" fill="#f6aa00"></rect><path fill="#ffffff" transform="translate(4 4)" d="M7,6H4V5H7ZM2,3V4H1V5A.5.5,0,0,0,1,6V7H2V8H3.5V3Zm8,2V4H9V3H7.5V8H9V7h1V6a.5.5,0,0,0,0-1Z"></path></svg>