<svg xmlns="http://www.w3.org/2000/svg" viewBox="0 0 20 20" height="20" width="20"><title>mobile-phone-11.svg</title><rect fill="none" x="0" y="0" width="20" height="20"></rect><rect x="1" y="1" rx="4" ry="4" width="18" height="18" stroke="#ffffff" style="stroke-linejoin:round;stroke-miterlimit:4;" fill="#ffffff" stroke-width="2"></rect><rect x="1" y="1" width="18" height="18" rx="4" ry="4" fill="#f6aa00"></rect><path fill="#ffffff" transform="translate(4 4)" d="M7,2V1.5a.5.5,0,0,0-1,0V2H4A1,1,0,0,0,3,3V9a1,1,0,0,0,1,1H7A1,1,0,0,0,8,9V3A1,1,0,0,0,7,2ZM5,9H4V8H5ZM5,7H4V6H5ZM7,9H6V8H7ZM7,7H6V6H7ZM7,5H4V3H7Z"></path></svg>