<svg xmlns="http://www.w3.org/2000/svg" viewBox="0 0 24 24" height="24" width="24"><title>place-of-worship-15.svg</title><rect fill="none" x="0" y="0" width="24" height="24"></rect><rect x="1" y="1" rx="4" ry="4" width="22" height="22" stroke="#ffffff" style="stroke-linejoin:round;stroke-miterlimit:4;" fill="#ffffff" stroke-width="2"></rect><rect x="1" y="1" width="22" height="22" rx="4" ry="4" fill="#f6aa00"></rect><path fill="#ffffff" transform="translate(4 4)" d="M7.5,0l-2,2v2h4V2
	L7.5,0z M5.5,4.5L4,6h7L9.5,4.5H5.5z M2,6.5c-0.5523,0-1,0.4477-1,1V13h2V7.5C3,6.9477,2.5523,6.5,2,6.5z M4,6.5V13h7V6.5H4z
	 M13,6.5c-0.5523,0-1,0.4477-1,1V13h2V7.5C14,6.9477,13.5523,6.5,13,6.5z"></path></svg>