<svg xmlns="http://www.w3.org/2000/svg" viewBox="0 0 15 15" height="15" width="15"><title>post-JP-11.svg</title><rect fill="none" x="0" y="0" width="15" height="15"></rect><rect x="1" y="1" rx="4" ry="4" width="13" height="13" stroke="#ffffff" style="stroke-linejoin:round;stroke-miterlimit:4;" fill="#ffffff" stroke-width="2"></rect><rect x="1" y="1" width="13" height="13" rx="4" ry="4" fill="#415cbd"></rect><path fill="#ffffff" transform="translate(2 2)" d="M1,2.25a.75.75,0,0,1,.75-.75h7.5a.75.75,0,0,1,0,1.5H1.75A.75.75,0,0,1,1,2.25ZM9.25,3.999H1.75a.75.75,0,0,0,0,1.5H4.5v3a1,1,0,0,0,2,0v-3H9.25a.75.75,0,1,0,0-1.5Z"></path></svg>