<svg xmlns="http://www.w3.org/2000/svg" viewBox="0 0 21 21" height="21" width="21"><title>religious-shinto-15.svg</title><rect fill="none" x="0" y="0" width="21" height="21"></rect><rect x="1" y="1" rx="4" ry="4" width="19" height="19" stroke="#ffffff" style="stroke-linejoin:round;stroke-miterlimit:4;" fill="#ffffff" stroke-width="2"></rect><rect x="1" y="1" width="19" height="19" rx="4" ry="4" fill="#b99673"></rect><path fill="#ffffff" transform="translate(3 3)" d="M12.5,2.5H2.5a.9448.9448,0,0,0-1,1,.9448.9448,0,0,0,1,1H3V12a.9448.9448,0,0,0,1,1,.9448.9448,0,0,0,1-1V8h5v4a.9448.9448,0,0,0,1,1,.9448.9448,0,0,0,1-1V4.5h.5a.9448.9448,0,0,0,1-1,.9448.9448,0,0,0-1-1ZM10,6H8V4.5h2ZM7,6H5V4.5H7Z"></path></svg>