<svg xmlns="http://www.w3.org/2000/svg" viewBox="0 0 14 14" height="14" width="14"><title>religious-shinto-11.svg</title><rect fill="none" x="0" y="0" width="14" height="14"></rect><rect x="0" y="0" rx="4" ry="4" width="13" height="13" stroke="#ffffff" style="stroke-linejoin:round;stroke-miterlimit:4;" fill="#ffffff" stroke-width="1"></rect><rect x="0" y="0" width="13" height="13" rx="4" ry="4" fill="#415cbd"></rect><path fill="#ffffff" transform="translate(1 1)" d="M9.25,2.009H1.75a.75.75,0,0,0,0,1.5H2v5.25a.75.75,0,0,0,1.5,0V6.009h4v2.75a.75.75,0,0,0,1.5,0V3.509h.25a.75.75,0,0,0,0-1.5ZM7.5,4.759H6V3.509H7.5Zm-4-1.25H5v1.25H3.5Z"></path></svg>