<svg xmlns="http://www.w3.org/2000/svg" viewBox="0 0 24 24" height="24" width="24"><title>residential-community-15.svg</title><rect fill="none" x="0" y="0" width="24" height="24"></rect><rect x="1" y="1" rx="4" ry="4" width="22" height="22" stroke="#ffffff" style="stroke-linejoin:round;stroke-miterlimit:4;" fill="#ffffff" stroke-width="2"></rect><rect x="1" y="1" width="22" height="22" rx="4" ry="4" fill="#f6aa00"></rect><path fill="#ffffff" transform="translate(4 4)" d="M11.8,13.5V11c0.7-0.1,1.2-0.7,1.2-1.5S12.3,8,11.5,8S10,8.7,10,9.5c0,0.7,0.5,1.4,1.2,1.5v2.5H7V2H2v11.5H1V14h13v-0.5
	H11.8z M6,11H3v-1h3V11z M6,9H3V8h3V9z M6,7H3V6h3V7z M6,5H3V4h3V5z"></path></svg>