<svg xmlns="http://www.w3.org/2000/svg" viewBox="0 0 24 24" height="24" width="24"><title>school-15.svg</title><rect fill="none" x="0" y="0" width="24" height="24"></rect><rect x="1" y="1" rx="4" ry="4" width="22" height="22" stroke="#ffffff" style="stroke-linejoin:round;stroke-miterlimit:4;" fill="#ffffff" stroke-width="2"></rect><rect x="1" y="1" width="22" height="22" rx="4" ry="4" fill="#415cbd"></rect><path fill="#ffffff" transform="translate(4 4)" d="M11,13v-1h2v-1H9.5v-1H13V9h-2V8h2V7h-2V6h2V5H9.5V4H13V3h-2V2h2V1H8v13h5v-1H11z M6,11H2V1h4V11z M6,12l-2,2l-2-2H6z"></path></svg>