<svg xmlns="http://www.w3.org/2000/svg" viewBox="0 0 20 20" height="20" width="20"><title>skateboard-11.svg</title><rect fill="none" x="0" y="0" width="20" height="20"></rect><rect x="1" y="1" rx="4" ry="4" width="18" height="18" stroke="#ffffff" style="stroke-linejoin:round;stroke-miterlimit:4;" fill="#ffffff" stroke-width="2"></rect><rect x="1" y="1" width="18" height="18" rx="4" ry="4" fill="#415cbd"></rect><path fill="#ffffff" transform="translate(4 4)" d="M8,6H3A2.0024,2.0024,0,0,1,1,4H2A1.001,1.001,0,0,0,3,5H8A1.001,1.001,0,0,0,9,4h1A2.0024,2.0024,0,0,1,8,6ZM8,7A1,1,0,1,0,9,8,1,1,0,0,0,8,7ZM3,7A1,1,0,1,0,4,8,1,1,0,0,0,3,7Z"></path></svg>