<svg xmlns="http://www.w3.org/2000/svg" viewBox="0 0 20 20" height="20" width="20"><title>slipway-11.svg</title><rect fill="none" x="0" y="0" width="20" height="20"></rect><rect x="1" y="1" rx="4" ry="4" width="18" height="18" stroke="#ffffff" style="stroke-linejoin:round;stroke-miterlimit:4;" fill="#ffffff" stroke-width="2"></rect><rect x="1" y="1" width="18" height="18" rx="4" ry="4" fill="#f6aa00"></rect><path fill="#ffffff" transform="translate(4 4)" d="M1.0417,8l8,1.3794V10h-8Zm8-4-1,1v.625L3.7345,4.01l.0777-.2852.86-.8447H5.5a.35.35,0,0,0,0-.6992H4.529a.3478.3478,0,0,0-.2451.1L3.2546,3.291a.3566.3566,0,0,0-.0928.1582l-.0856.3137L1.0417,3C1.0948,4,1,5.5094,3,5.8844,3.9829,6.0687,8.0948,7,8.0948,7l1.9469-2Z"></path></svg>