<svg xmlns="http://www.w3.org/2000/svg" viewBox="0 0 19 19" height="19" width="19"><title>suitcase-15.svg</title><rect fill="none" x="0" y="0" width="19" height="19"></rect><rect x="1" y="1" rx="4" ry="4" width="17" height="17" stroke="#ffffff" style="stroke-linejoin:round;stroke-miterlimit:4;" fill="#ffffff" stroke-width="2"></rect><rect x="1" y="1" width="17" height="17" rx="4" ry="4" fill="#415cbd"></rect><path fill="#ffffff" transform="translate(2 2)" d="M11,4V2c0-1-1-1-1-1H5.0497
	c0,0-1.1039,0.0015-1.0497,1v2H2c0,0-1,0-1,1v7c0,1,1,1,1,1h11c0,0,1,0,1-1V5c0-1-1-1-1-1H11z M5.5,2.5h4V4h-4V2.5z"></path></svg>