<svg xmlns="http://www.w3.org/2000/svg" viewBox="0 0 14 14" height="14" width="14"><title>telephone-11.svg</title><rect fill="none" x="0" y="0" width="14" height="14"></rect><rect x="0" y="0" rx="4" ry="4" width="13" height="13" stroke="#ffffff" style="stroke-linejoin:round;stroke-miterlimit:4;" fill="#ffffff" stroke-width="1"></rect><rect x="0" y="0" width="13" height="13" rx="4" ry="4" fill="#415cbd"></rect><path fill="#ffffff" transform="translate(1 1)" d="M3,9.4a0.73,0.73,0,0,0,1,0l0.74-.74a0.73,0.73,0,0,0,0-1ZM7.56,4.8a0.73,0.73,0,0,0,1,0l0.71-.71a0.73,0.73,0,0,0,0-1ZM5.88,3.57L3.57,5.88a0.37,0.37,0,0,0,0,.52L4,6.84,2.26,8.6a2.27,2.27,0,0,1-.73-1.34v-1a1.3452,1.3452,0,0,1,.52-1L5.26,2.05a1.3452,1.3452,0,0,1,1-.52h1a2.27,2.27,0,0,1,1.34.73L6.84,4,6.4,3.57a0.37,0.37,0,0,0-.52,0"></path></svg>