<svg width="21" height="21" viewBox="0 0 21 21" fill="none" xmlns="http://www.w3.org/2000/svg">
<path d="M7.75 18.5V19H8.25H13.25H13.75V18.5V16V15.5H13.25L8.25 15.5H7.75V16L7.75 18.5Z" fill="#415CBD" stroke="white"/>
<path d="M10.0988 8.5H9.59876V9V18.5V19H10.0988H11.4012H11.9012V18.5V9V8.5H11.4012H10.0988Z" fill="#415CBD" stroke="white"/>
<path d="M10.75 10.25C13.0972 10.25 15 8.34721 15 6C15 3.65279 13.0972 1.75 10.75 1.75C8.40279 1.75 6.5 3.65279 6.5 6C6.5 8.34721 8.40279 10.25 10.75 10.25ZM12.75 6C12.75 7.10457 11.8546 8 10.75 8C9.64543 8 8.75 7.10457 8.75 6C8.75 4.89543 9.64543 4 10.75 4C11.8546 4 12.75 4.89543 12.75 6Z" fill="#415CBD" stroke="white"/>
<path d="M10.75 9V18.5" stroke="#415CBD" stroke-width="1.30247"/>
<path fill-rule="evenodd" clip-rule="evenodd" d="M13.25 18.5H8.25V16L13.25 16V18.5Z" fill="#415CBD"/>
</svg>
