<svg xmlns="http://www.w3.org/2000/svg" viewBox="0 0 21 21" height="21" width="21"><title>cemetery-JP-15.svg</title><rect fill="none" x="0" y="0" width="21" height="21"></rect><rect x="1" y="1" rx="4" ry="4" width="19" height="19" stroke="#ffffff" style="stroke-linejoin:round;stroke-miterlimit:4;" fill="#ffffff" stroke-width="2"></rect><rect x="1" y="1" width="19" height="19" rx="4" ry="4" fill="#b99673"></rect><path fill="#ffffff" transform="translate(3 3)" d="M11.5,11h-3V2.5a.9448.9448,0,0,0-1-1,.9448.9448,0,0,0-1,1V11h-3a1,1,0,0,0,0,2h8a.9448.9448,0,0,0,1-1A1.0022,1.0022,0,0,0,11.5,11Z"></path></svg>