<svg width="23" height="23" viewBox="0 0 23 23" fill="none" xmlns="http://www.w3.org/2000/svg">
<path d="M11.5 4C15.6 4 19 7.4 19 11.5C19 15.6 15.6 19 11.5 19C7.4 19 4 15.6 4 11.5C4 7.4 7.4 4 11.5 4ZM11.5 5.7C8.3 5.7 5.7 8.3 5.7 11.5C5.7 14.7 8.3 17.3 11.5 17.3C14.7 17.3 17.3 14.7 17.3 11.5C17.3 8.3 14.7 5.7 11.5 5.7Z" fill="white" stroke="white" stroke-width="2" stroke-linejoin="round"/>
<path d="M11.5 4C15.6 4 19 7.4 19 11.5C19 15.6 15.6 19 11.5 19C7.4 19 4 15.6 4 11.5C4 7.4 7.4 4 11.5 4Z" fill="black"/>
<path d="M11.5 17.3C14.7033 17.3 17.3 14.7032 17.3 11.5C17.3 8.29675 14.7033 5.7 11.5 5.7C8.29676 5.7 5.70001 8.29675 5.70001 11.5C5.70001 14.7032 8.29676 17.3 11.5 17.3Z" fill="white"/>
</svg>
