<svg xmlns="http://www.w3.org/2000/svg" viewBox="0 0 21 21" height="21" width="21"><title>convenience-JP-15.svg</title><rect fill="none" x="0" y="0" width="21" height="21"></rect><rect x="1" y="1" rx="4" ry="4" width="19" height="19" stroke="#fff" style="stroke-linejoin:round;stroke-miterlimit:4;" fill="#fff" stroke-width="2"></rect><rect x="1" y="1" width="19" height="19" rx="4" ry="4" fill="#0085ff"></rect><path fill="#fff" transform="translate(3 3)" d="M0 3V7H1V12H5.1H7H8H9.9H14V7H15V3H0ZM6.1 11V9H7V11H6.1ZM8 11V9H8.9V11H8ZM13 11H9.9V8H8H7H5.1V11H2V7H13V11ZM14 4.8H2V4.2H14V4.8Z"></path></svg>