<svg xmlns="http://www.w3.org/2000/svg" viewBox="0 0 21 21" height="21" width="21"><title>hospital-JP-15.svg</title><rect fill="none" x="0" y="0" width="21" height="21"></rect><rect x="1" y="1" rx="4" ry="4" width="19" height="19" stroke="#ffffff" style="stroke-linejoin:round;stroke-miterlimit:4;" fill="#ffffff" stroke-width="2"></rect><rect x="1" y="1" width="19" height="19" rx="4" ry="4" fill="#ed5a5a"></rect><path fill="#ffffff" transform="translate(3 3)" d="M12.5038,2.25H2.496A1.0049,1.0049,0,0,0,1.5,3.2631V8.8438a1.0153,1.0153,0,0,0,.5507.9062l4.78,2.8394a1.4743,1.4743,0,0,0,1.3382,0L12.9493,9.75A1.015,1.015,0,0,0,13.5,8.8438V3.2631A1.0046,1.0046,0,0,0,12.5038,2.25ZM10.5,7.75h-2v2h-2v-2h-2v-2h2v-2h2v2h2Z"></path></svg>