<svg width="21" height="21" viewBox="0 0 21 21" fill="none" xmlns="http://www.w3.org/2000/svg">
<path d="M16 1H5C2.79086 1 1 2.79086 1 5V16C1 18.2091 2.79086 20 5 20H16C18.2091 20 20 18.2091 20 16V5C20 2.79086 18.2091 1 16 1Z" fill="white" stroke="white" stroke-width="2" stroke-linejoin="round"/>
<path d="M16 1H5C2.79086 1 1 2.79086 1 5V16C1 18.2091 2.79086 20 5 20H16C18.2091 20 20 18.2091 20 16V5C20 2.79086 18.2091 1 16 1Z" fill="#2CB431"/>
<path d="M6.02401 15.168C7.93201 15.168 8.77201 13.8 8.77201 12.132V6.12H6.99601V11.988C6.99601 13.212 6.58801 13.632 5.80801 13.632C5.30401 13.632 4.83601 13.356 4.48801 12.708L3.26401 13.608C3.86401 14.64 4.72801 15.168 6.02401 15.168Z" fill="white"/>
<path d="M12.6883 7.52399H13.8403C14.9803 7.52399 15.6043 7.848 15.6043 8.80799C15.6043 9.756 14.9803 10.236 13.8403 10.236H12.6883V7.52399ZM17.7283 15L15.6523 11.364C16.6723 10.968 17.3443 10.14 17.3443 8.80799C17.3443 6.76799 15.8683 6.12 14.0083 6.12H10.9123V15H12.6883V11.64H13.9243L15.7483 15H17.7283Z" fill="white"/>
</svg>
