<svg width="17" height="17" viewBox="0 0 17 17" fill="none" xmlns="http://www.w3.org/2000/svg">
<path d="M12 1H5C2.79086 1 1 2.79086 1 5V12C1 14.2091 2.79086 16 5 16H12C14.2091 16 16 14.2091 16 12V5C16 2.79086 14.2091 1 12 1Z" fill="white" stroke="white" stroke-width="2" stroke-linejoin="round"/>
<path d="M12 1H5C2.79086 1 1 2.79086 1 5V12C1 14.2091 2.79086 16 5 16H12C14.2091 16 16 14.2091 16 12V5C16 2.79086 14.2091 1 12 1Z" fill="#309AC3"/>
<path d="M4.52 12.14C6.11 12.14 6.81 11 6.81 9.61001V4.60001H5.33V9.49001C5.33 10.51 4.99 10.86 4.34 10.86C3.92 10.86 3.53 10.63 3.24 10.09L2.22 10.84C2.72 11.7 3.44 12.14 4.52 12.14Z" fill="white"/>
<path d="M10.0736 5.77001H11.0336C11.9836 5.77001 12.5036 6.04001 12.5036 6.84001C12.5036 7.63001 11.9836 8.03001 11.0336 8.03001H10.0736V5.77001ZM14.2736 12L12.5436 8.97001C13.3936 8.64001 13.9536 7.95001 13.9536 6.84001C13.9536 5.14001 12.7236 4.60001 11.1736 4.60001H8.5936V12H10.0736V9.20001H11.1036L12.6236 12H14.2736Z" fill="white"/>
</svg>
