<svg xmlns="http://www.w3.org/2000/svg" viewBox="0 0 20 20" height="20" width="20"><title>national_1.svg</title><rect fill="none" x="0" y="0" width="20" height="20"></rect><path fill="#1064ec" transform="translate(1 1)" d="M9 17C4.33333 17 1 9.05594 1 5.6993C1 2.34266 4.42857 1 9 1C13.5714 1 17 2.45455 17 5.6993C17 8.94406 13.7619 17 9 17Z" style="stroke-linejoin:round;stroke-miterlimit:4;" stroke="#1064ec" stroke-width="2"></path><path fill="#1971ff" transform="translate(1 1)" d="M9 17C4.33333 17 1 9.05594 1 5.6993C1 2.34266 4.42857 1 9 1C13.5714 1 17 2.45455 17 5.6993C17 8.94406 13.7619 17 9 17Z"></path></svg>