<svg xmlns="http://www.w3.org/2000/svg" viewBox="0 0 34 20" height="20" width="34"><title>national_3.svg</title><rect fill="none" x="0" y="0" width="34" height="20"></rect><path fill="#1064ec" transform="translate(1 1)" d="M16 17C7.25 17 1 9.05594 1 5.6993C1 2.34266 7.42857 1 16 1C24.5714 1 31 2.45455 31 5.6993C31 8.94406 24.9286 17 16 17Z" style="stroke-linejoin:round;stroke-miterlimit:4;" stroke="#1064ec" stroke-width="2"></path><path fill="#1971ff" transform="translate(1 1)" d="M16 17C7.25 17 1 9.05594 1 5.6993C1 2.34266 7.42857 1 16 1C24.5714 1 31 2.45455 31 5.6993C31 8.94406 24.9286 17 16 17Z"></path></svg>