<svg xmlns="http://www.w3.org/2000/svg" viewBox="0 0 27 20" height="20" width="27"><title>national_2.svg</title><rect fill="none" x="0" y="0" width="27" height="20"></rect><path fill="#1064ec" transform="translate(1 1)" d="M12.5 17C5.79167 17 1 9.05594 1 5.6993C1 2.34266 5.92857 1 12.5 1C19.0714 1 24 2.45455 24 5.6993C24 8.94406 19.3452 17 12.5 17Z" style="stroke-linejoin:round;stroke-miterlimit:4;" stroke="#1064ec" stroke-width="2"></path><path fill="#1971ff" transform="translate(1 1)" d="M12.5 17C5.79167 17 1 9.05594 1 5.6993C1 2.34266 5.92857 1 12.5 1C19.0714 1 24 2.45455 24 5.6993C24 8.94406 19.3452 17 12.5 17Z"></path></svg>