<svg xmlns="http://www.w3.org/2000/svg" viewBox="0 0 21 21" height="21" width="21"><title>school-15.svg</title><rect fill="none" x="0" y="0" width="21" height="21"></rect><rect x="1" y="1" rx="4" ry="4" width="19" height="19" stroke="#ffffff" style="stroke-linejoin:round;stroke-miterlimit:4;" fill="#ffffff" stroke-width="2"></rect><rect x="1" y="1" width="19" height="19" rx="4" ry="4" fill="#b99673"></rect><path fill="#ffffff" transform="translate(3 3)" d="M11,13v-1h2v-1H9.5v-1H13V9h-2V8h2V7h-2V6h2V5H9.5V4H13V3h-2V2h2V1H8v13h5v-1H11z M6,11H2V1h4V11z M6,12l-2,2l-2-2H6z"></path></svg>