<svg id="e4160a90-f90b-4f34-807d-fb3fce30f401" data-name="f6d47487-d0a2-4bb5-b3d3-38b7aa166676" xmlns="http://www.w3.org/2000/svg" width="11" height="11" viewBox="0 0 11 11">
  <path d="M10.26138,2.49667H1.03163L.0061,4.914V7.62431H2.78967a.90834.90834,0,0,1,.93618-.87964l.0161.00064a.95593.95593,0,0,1,.95228.879H7.91732a.90833.90833,0,0,1,.93616-.87964l.01611.00064a.95914.95914,0,0,1,.95228.879h1.172V3.22919A.78776.78776,0,0,0,10.26138,2.49667ZM2.35016,6.89179H1.32463V3.22919H2.35016ZM4.54772,4.69423h-1.465v-1.465h1.465Zm1.90456,0h-1.465v-1.465h1.465Zm1.90455,0h-1.465v-1.465h1.465Zm1.90455,0h-1.465v-1.465H9.89512a.346.346,0,0,1,.36626.36626Z"/>
  <path d="M3.742,8.50333a.80577.80577,0,1,0-.80577-.80577h0A.80579.80579,0,0,0,3.742,8.50333Z"/>
  <path d="M8.79634,8.50333a.80577.80577,0,1,0-.80577-.80577h0A.80579.80579,0,0,0,8.79634,8.50333Z"/>
</svg>
