<svg width="15" height="15" viewBox="0 0 15 15" fill="none" xmlns="http://www.w3.org/2000/svg">
<path d="M11.6749 11.5787C10.4821 11.1198 9.24451 10.572 8.18588 9.80215C9.18487 8.7362 9.94529 7.37416 10.2584 5.59758H11.3916C11.8091 5.59758 12.1371 5.27187 12.1371 4.85733C12.1371 4.4428 11.8091 4.11709 11.3916 4.11709H7.81313V2.74024C7.81313 2.32571 7.4851 2 7.06762 2C6.65013 2 6.32211 2.32571 6.32211 2.74024V4.10229H2.74366C2.32617 4.10229 1.99815 4.42799 1.99815 4.84253C1.99815 5.25707 2.32617 5.58277 2.74366 5.58277H3.87683C4.20486 7.35935 4.96528 8.7214 5.94935 9.78735C4.87582 10.572 3.65318 11.105 2.46037 11.5639C2.0727 11.712 1.89378 12.1413 2.04288 12.5262C2.16216 12.8223 2.44546 13 2.74366 13C2.83312 13 2.92258 12.9852 3.01204 12.9556C4.4136 12.4078 5.84498 11.7416 7.06762 10.7941C8.29025 11.7416 9.72163 12.4078 11.1232 12.9556C11.2127 12.9852 11.3021 13 11.3916 13C11.6898 13 11.9731 12.8223 12.0924 12.5262C12.2415 12.1561 12.0625 11.7268 11.6749 11.5787ZM8.73756 5.58277C8.43936 6.94482 7.84295 7.99596 7.06762 8.82503C6.29229 7.99596 5.69588 6.94482 5.39767 5.58277H8.73756V5.58277Z" fill="black"/>
</svg>
