<svg width="15" height="15" viewBox="0 0 15 15" fill="none" xmlns="http://www.w3.org/2000/svg">
  <path d="M14 3H1.4L0 6.3C0 6.8 0 6.8 0 7.3V10H3.8C3.8 9.3 4.4 8.8 5.1 8.8C5.8 8.8 6.3 9.3 6.4 10H10.8C10.8 9.3 11.4 8.8 12.1 8.8C12.8 8.8 13.4 9.4 13.4 10H15V4C15 3.5 14.5 3 14 3ZM3.2 9H1.8V4H3.2V9ZM6.2 6H4.2V4H6.2V6ZM8.8 6H6.8V4H8.8V6ZM11.4 6H9.4V4H11.4V6ZM14 6H12V4H13.5C13.8 4 14 4.2 14 4.5V6Z" fill="#ffffff"></path>
  <path d="M5.1 11.2C5.70751 11.2 6.2 10.7075 6.2 10.1C6.2 9.49249 5.70751 9 5.1 9C4.49249 9 4 9.49249 4 10.1C4 10.7075 4.49249 11.2 5.1 11.2Z" fill="#ffffff"></path>
  <path d="M12 11.2C12.6075 11.2 13.1 10.7075 13.1 10.1C13.1 9.49249 12.6075 9 12 9C11.3925 9 10.9 9.49249 10.9 10.1C10.9 10.7075 11.3925 11.2 12 11.2Z" fill="#ffffff"></path>
</svg>
